<?xml version="1.0" standalone="no"?>
<!DOCTYPE svg PUBLIC "-//W3C//DTD SVG 20010904//EN"
 "http://www.w3.org/TR/2001/REC-SVG-20010904/DTD/svg10.dtd">
<svg version="1.0" xmlns="http://www.w3.org/2000/svg"
 width="100.000000pt" height="100.000000pt" viewBox="0 0 100.000000 100.000000"
 preserveAspectRatio="xMidYMid meet">

<g transform="translate(0.000000,100.000000) scale(0.100000,-0.100000)"
fill="#c7a17a" stroke="none">
<path d="M40 620 l0 -200 110 0 110 0 0 -35 c0 -76 -50 -145 -105 -145 -12 0
-15 -14 -15 -71 l0 -72 49 6 c95 11 174 66 219 152 27 50 27 51 30 308 l3 257
-200 0 -201 0 0 -200z"/>
<path d="M560 620 l0 -200 110 0 110 0 0 -35 c0 -76 -50 -145 -105 -145 -12 0
-15 -14 -15 -71 l0 -72 49 6 c95 11 174 66 219 152 27 50 27 51 30 308 l3 257
-200 0 -201 0 0 -200z"/>
</g>
</svg>
